<?xml version="1.0" encoding="UTF-8"?>
<svg version="1.1" xmlns="http://www.w3.org/2000/svg" width="321" height="999">
<path d="M0 0 C32.82238726 27.39125062 54.80871743 65.21487453 59.41796875 108.08984375 C60.08378597 118.99127154 59.97484651 129.92366066 59.94086742 140.84080768 C59.93170058 145.21036842 59.94584342 149.57986894 59.95678711 153.94941711 C59.97445457 162.47898159 59.97078535 171.00840426 59.95913655 179.537974 C59.9500557 186.47806107 59.94889818 193.41810875 59.95323181 200.35820007 C59.95384474 201.3507728 59.95445768 202.34334552 59.95508918 203.36599621 C59.95636825 205.38319338 59.9576651 207.40039055 59.95897955 209.4175877 C59.97035085 228.27616189 59.95732603 247.13465795 59.93577808 265.99321932 C59.91791026 282.12979596 59.92101534 298.26625746 59.93945312 314.40283203 C59.96092106 333.19982306 59.96925254 351.99674584 59.95700407 370.79374743 C59.95573005 372.80299408 59.95447256 374.81224075 59.95323181 376.82148743 C59.95230616 378.30387504 59.95230616 378.30387504 59.95136181 379.81620988 C59.94792662 386.73765347 59.95369744 393.6590533 59.96315002 400.58049011 C59.97443751 409.03018125 59.97118955 417.479724 59.95002705 425.92939842 C59.93960655 430.22997557 59.93523833 434.5303065 59.94862366 438.83088112 C60.0115426 460.86720341 59.177736 482.10830597 51.85546875 503.15234375 C51.35164673 504.62731323 51.35164673 504.62731323 50.83764648 506.13208008 C36.38233523 546.73004481 5.64494051 579.19260189 -32.89453125 597.83984375 C-42.19710826 602.17709741 -51.64963085 605.51903487 -61.58203125 608.08984375 C-62.37786621 608.30012207 -63.17370117 608.51040039 -63.99365234 608.72705078 C-105.14482173 619.11145177 -149.51379378 610.52215313 -185.58203125 589.08984375 C-222.33844633 566.80649845 -247.5961239 530.10330678 -258.16437435 488.81471539 C-262.31725872 471.46678049 -262.16005691 454.05063567 -262.10492992 436.33887982 C-262.09576308 431.96931908 -262.10990592 427.59981856 -262.12084961 423.23027039 C-262.13851707 414.70070591 -262.13484785 406.17128324 -262.12319905 397.6417135 C-262.1141182 390.70162643 -262.11296068 383.76157875 -262.11729431 376.82148743 C-262.11790724 375.8289147 -262.11852018 374.83634198 -262.11915168 373.81369129 C-262.12043075 371.79649412 -262.1217276 369.77929695 -262.12304205 367.7620998 C-262.13441335 348.90352561 -262.12138853 330.04502955 -262.09984058 311.18646818 C-262.08197276 295.04989154 -262.08507784 278.91343004 -262.10351562 262.77685547 C-262.12498356 243.97986444 -262.13331504 225.18294166 -262.12106657 206.38594007 C-262.11979255 204.37669342 -262.11853506 202.36744675 -262.11729431 200.35820007 C-262.11636866 198.87581246 -262.11636866 198.87581246 -262.11542431 197.36347762 C-262.11198912 190.44203403 -262.11775994 183.5206342 -262.12721252 176.59919739 C-262.13850001 168.14950625 -262.13525205 159.6999635 -262.11408955 151.25028908 C-262.10366905 146.94971193 -262.09930083 142.649381 -262.11268616 138.34880638 C-262.1756051 116.31248409 -261.3417985 95.07138153 -254.01953125 74.02734375 C-253.6836499 73.04403076 -253.34776855 72.06071777 -253.00170898 71.04760742 C-238.54639773 30.44964269 -207.80900301 -2.01291439 -169.26953125 -20.66015625 C-159.96695424 -24.99740991 -150.51443165 -28.33934737 -140.58203125 -30.91015625 C-139.78619629 -31.12043457 -138.99036133 -31.33071289 -138.17041016 -31.54736328 C-90.72610158 -43.51982317 -37.61915468 -30.83224553 0 0 Z " fill="#C5A2FE" transform="translate(261.58203125,386.91015625)"/>
<path d="M0 0 C27.13885768 22.64817748 46.51655672 51.69896041 55.41796875 86.08984375 C55.62824707 86.88567871 55.83852539 87.68151367 56.05517578 88.50146484 C66.43957677 129.65263423 57.85027813 174.02160628 36.41796875 210.08984375 C14.73600569 245.85427784 -21.27696498 271.65766036 -61.58203125 282.08984375 C-62.37786621 282.30012207 -63.17370117 282.51040039 -63.99365234 282.72705078 C-105.14482173 293.11145177 -149.51379378 284.52215313 -185.58203125 263.08984375 C-221.34646534 241.40788069 -247.14984786 205.39491002 -257.58203125 165.08984375 C-257.79230957 164.29400879 -258.00258789 163.49817383 -258.21923828 162.67822266 C-268.60363927 121.52705327 -260.01434063 77.15808122 -238.58203125 41.08984375 C-216.90006819 5.32540966 -180.88709752 -20.47797286 -140.58203125 -30.91015625 C-139.78619629 -31.12043457 -138.99036133 -31.33071289 -138.17041016 -31.54736328 C-90.72610158 -43.51982317 -37.61915468 -30.83224553 0 0 Z " fill="#C5A2FE" transform="translate(261.58203125,34.91015625)"/>
<path d="M0 0 C32.82238726 27.39125062 54.80871743 65.21487453 59.41796875 108.08984375 C60.08378597 118.99127154 59.97484651 129.92366066 59.94086742 140.84080768 C59.93170058 145.21036842 59.94584342 149.57986894 59.95678711 153.94941711 C59.97445457 162.47898159 59.97078535 171.00840426 59.95913655 179.537974 C59.9500557 186.47806107 59.94889818 193.41810875 59.95323181 200.35820007 C59.95384474 201.3507728 59.95445768 202.34334552 59.95508918 203.36599621 C59.95636825 205.38319338 59.9576651 207.40039055 59.95897955 209.4175877 C59.97035085 228.27616189 59.95732603 247.13465795 59.93577808 265.99321932 C59.91791026 282.12979596 59.92101534 298.26625746 59.93945312 314.40283203 C59.96092106 333.19982306 59.96925254 351.99674584 59.95700407 370.79374743 C59.95573005 372.80299408 59.95447256 374.81224075 59.95323181 376.82148743 C59.95230616 378.30387504 59.95230616 378.30387504 59.95136181 379.81620988 C59.94792662 386.73765347 59.95369744 393.6590533 59.96315002 400.58049011 C59.97443751 409.03018125 59.97118955 417.479724 59.95002705 425.92939842 C59.93960655 430.22997557 59.93523833 434.5303065 59.94862366 438.83088112 C60.0115426 460.86720341 59.177736 482.10830597 51.85546875 503.15234375 C51.35164673 504.62731323 51.35164673 504.62731323 50.83764648 506.13208008 C36.38233523 546.73004481 5.64494051 579.19260189 -32.89453125 597.83984375 C-42.19710826 602.17709741 -51.64963085 605.51903487 -61.58203125 608.08984375 C-62.37786621 608.30012207 -63.17370117 608.51040039 -63.99365234 608.72705078 C-105.14482173 619.11145177 -149.51379378 610.52215313 -185.58203125 589.08984375 C-222.33844633 566.80649845 -247.5961239 530.10330678 -258.16437435 488.81471539 C-262.31725872 471.46678049 -262.16005691 454.05063567 -262.10492992 436.33887982 C-262.09576308 431.96931908 -262.10990592 427.59981856 -262.12084961 423.23027039 C-262.13851707 414.70070591 -262.13484785 406.17128324 -262.12319905 397.6417135 C-262.1141182 390.70162643 -262.11296068 383.76157875 -262.11729431 376.82148743 C-262.11790724 375.8289147 -262.11852018 374.83634198 -262.11915168 373.81369129 C-262.12043075 371.79649412 -262.1217276 369.77929695 -262.12304205 367.7620998 C-262.13441335 348.90352561 -262.12138853 330.04502955 -262.09984058 311.18646818 C-262.08197276 295.04989154 -262.08507784 278.91343004 -262.10351562 262.77685547 C-262.12498356 243.97986444 -262.13331504 225.18294166 -262.12106657 206.38594007 C-262.11979255 204.37669342 -262.11853506 202.36744675 -262.11729431 200.35820007 C-262.11636866 198.87581246 -262.11636866 198.87581246 -262.11542431 197.36347762 C-262.11198912 190.44203403 -262.11775994 183.5206342 -262.12721252 176.59919739 C-262.13850001 168.14950625 -262.13525205 159.6999635 -262.11408955 151.25028908 C-262.10366905 146.94971193 -262.09930083 142.649381 -262.11268616 138.34880638 C-262.1756051 116.31248409 -261.3417985 95.07138153 -254.01953125 74.02734375 C-253.6836499 73.04403076 -253.34776855 72.06071777 -253.00170898 71.04760742 C-238.54639773 30.44964269 -207.80900301 -2.01291439 -169.26953125 -20.66015625 C-159.96695424 -24.99740991 -150.51443165 -28.33934737 -140.58203125 -30.91015625 C-139.78619629 -31.12043457 -138.99036133 -31.33071289 -138.17041016 -31.54736328 C-90.72610158 -43.51982317 -37.61915468 -30.83224553 0 0 Z M-148.58203125 21.08984375 C-149.58234375 21.5178125 -150.58265625 21.94578125 -151.61328125 22.38671875 C-178.25233025 34.5604777 -198.54224753 58.82351516 -209.01171875 85.76953125 C-213.82785369 99.47699223 -216.03620938 112.60266643 -215.9697113 127.12236023 C-215.97389653 128.5729861 -215.97938049 130.02360868 -215.98603112 131.47422534 C-216.00034918 135.41514361 -215.99628427 139.35585033 -215.9888643 143.29677951 C-215.98410063 147.56485133 -215.99667067 151.83287945 -216.00688171 156.10093689 C-216.02401397 164.44561002 -216.02492119 172.79020766 -216.01966881 181.1348938 C-216.01561473 187.92403639 -216.01708532 194.71315681 -216.02241707 201.50229836 C-216.02316549 202.4714187 -216.02391391 203.44053905 -216.02468501 204.43902669 C-216.02621662 206.40831306 -216.02775497 208.37759942 -216.02929998 210.34688578 C-216.04300537 228.78520989 -216.0376016 247.22349148 -216.02611477 265.66181461 C-216.01618889 282.49269343 -216.02911542 299.32346222 -216.05304896 316.15432408 C-216.07749262 333.47573702 -216.08703464 350.79709883 -216.08039623 368.11852866 C-216.07691512 377.82730389 -216.07906223 387.5359946 -216.09664726 397.2447567 C-216.11143548 405.51131357 -216.11191905 413.77772643 -216.09457635 422.04428067 C-216.08611728 426.25343162 -216.08379031 430.46232605 -216.09922791 434.67146301 C-216.32493917 465.14890927 -216.32493917 465.14890927 -207.70703125 494.15234375 C-207.18278564 495.32724365 -207.18278564 495.32724365 -206.64794922 496.52587891 C-205.65228058 498.72747878 -204.62573436 500.91068923 -203.58203125 503.08984375 C-203.08703125 504.13785156 -202.59203125 505.18585938 -202.08203125 506.265625 C-188.85619761 532.2288382 -164.28611827 551.30361047 -137.14453125 560.83984375 C-134.6323003 561.61817297 -132.11137347 562.36906042 -129.58203125 563.08984375 C-128.47085938 563.41082031 -127.3596875 563.73179687 -126.21484375 564.0625 C-100.01190594 570.44983745 -73.47061827 565.53125023 -49.58203125 554.08984375 C-48.53402344 553.59484375 -47.48601562 553.09984375 -46.40625 552.58984375 C-19.73123976 539.00141596 -0.7047319 513.80227282 8.64697266 485.79296875 C12.51305504 473.73009039 13.71673555 462.05512431 13.68539429 449.41136169 C13.6891388 447.96261407 13.69374349 446.51386847 13.69912493 445.065126 C13.71127164 441.11554232 13.71110438 437.16604387 13.70873618 433.2164458 C13.70832588 428.94425669 13.71938743 424.67209414 13.72885132 420.3999176 C13.745417 412.04114824 13.75095887 403.6824071 13.75207607 395.3236227 C13.75302875 388.52343852 13.75714999 381.7232636 13.76347733 374.92308235 C13.78107842 355.61141303 13.79031809 336.29976588 13.78881638 316.98808848 C13.78869651 315.42861969 13.78869651 315.42861969 13.78857422 313.83764648 C13.78845158 312.27625676 13.78845158 312.27625676 13.78832646 310.68332381 C13.7875141 293.82571648 13.806642 276.96819862 13.83485095 260.11061715 C13.86363728 242.77009886 13.87738806 225.42962412 13.8756634 208.08908135 C13.87500143 198.36631461 13.88040845 188.64364164 13.9020195 178.92089653 C13.92030723 170.64070446 13.92451678 162.36064866 13.91100065 154.08044504 C13.9045088 149.86333252 13.90421519 145.64648084 13.92170715 141.42939377 C14.00924982 118.88767932 12.89223298 98.95236499 3.41796875 78.08984375 C2.99 77.08953125 2.56203125 76.08921875 2.12109375 75.05859375 C-10.33212624 47.80801825 -35.03303296 27.63601282 -62.69384766 17.30078125 C-91.13052678 7.22766257 -121.22512167 8.66629307 -148.58203125 21.08984375 Z " fill="#232323" transform="translate(261.58203125,386.91015625)"/>
<path d="M0 0 C27.13885768 22.64817748 46.51655672 51.69896041 55.41796875 86.08984375 C55.62824707 86.88567871 55.83852539 87.68151367 56.05517578 88.50146484 C66.43957677 129.65263423 57.85027813 174.02160628 36.41796875 210.08984375 C14.73600569 245.85427784 -21.27696498 271.65766036 -61.58203125 282.08984375 C-62.37786621 282.30012207 -63.17370117 282.51040039 -63.99365234 282.72705078 C-105.14482173 293.11145177 -149.51379378 284.52215313 -185.58203125 263.08984375 C-221.34646534 241.40788069 -247.14984786 205.39491002 -257.58203125 165.08984375 C-257.79230957 164.29400879 -258.00258789 163.49817383 -258.21923828 162.67822266 C-268.60363927 121.52705327 -260.01434063 77.15808122 -238.58203125 41.08984375 C-216.90006819 5.32540966 -180.88709752 -20.47797286 -140.58203125 -30.91015625 C-139.78619629 -31.12043457 -138.99036133 -31.33071289 -138.17041016 -31.54736328 C-90.72610158 -43.51982317 -37.61915468 -30.83224553 0 0 Z M-148.58203125 21.08984375 C-149.58234375 21.5178125 -150.58265625 21.94578125 -151.61328125 22.38671875 C-178.25233025 34.5604777 -198.54224753 58.82351516 -209.01171875 85.76953125 C-210.32829995 89.5167239 -211.49361749 93.27042842 -212.58203125 97.08984375 C-213.06349609 98.75660156 -213.06349609 98.75660156 -213.5546875 100.45703125 C-219.94202495 126.65996906 -215.02343773 153.20125673 -203.58203125 177.08984375 C-203.08703125 178.13785156 -202.59203125 179.18585938 -202.08203125 180.265625 C-188.85619761 206.2288382 -164.28611827 225.30361047 -137.14453125 234.83984375 C-134.6323003 235.61817297 -132.11137347 236.36906042 -129.58203125 237.08984375 C-128.47085938 237.41082031 -127.3596875 237.73179687 -126.21484375 238.0625 C-100.01190594 244.44983745 -73.47061827 239.53125023 -49.58203125 228.08984375 C-48.53402344 227.59484375 -47.48601562 227.09984375 -46.40625 226.58984375 C-19.73123976 213.00141596 -0.7047319 187.80227282 8.64697266 159.79296875 C17.36529052 132.59023546 15.14789267 103.91937319 3.41796875 78.08984375 C2.99 77.08953125 2.56203125 76.08921875 2.12109375 75.05859375 C-10.33212624 47.80801825 -35.03303296 27.63601282 -62.69384766 17.30078125 C-91.13052678 7.22766257 -121.22512167 8.66629307 -148.58203125 21.08984375 Z " fill="#232323" transform="translate(261.58203125,34.91015625)"/>
</svg>
